#N canvas 67 89 1124 991 10;
#X obj 34 39 route \$1;
#X obj 34 19 r carrier;
#X obj 325 310 osc~;
#X obj 351 100 r ratio;
#X obj 343 263 *~;
#X obj 361 199 r index;
#X obj 361 242 line~;
#X msg 361 220 \$1 20;
#X obj 343 175 osc~;
#X obj 325 288 +~;
#X obj 343 153 * 2;
#X obj 350 122 t b f;
#X obj 325 78 mtof;
#X obj 382 34 unpack;
#X obj 420 355 line~;
#X obj 460 312 pack 0 0;
#X obj 327 414 *~;
#X obj 460 291 / 127;
#X obj 505 291 r A;
#X obj 428 269 sel 0;
#X obj 380 312 pack 0 0;
#X obj 433 290 r R;
#X obj 312 175 sig~;
#X obj 381 10 receive \$0-pack;
#X obj 277 185 vsl 15 128 0 1 0 0 empty h2 empty 0 -9 0 10 -262144
-1 -1 0 1;
#X obj 342 365 line~;
#X msg 342 340 \$1 100;
#X obj 326 389 *~;
#X obj 317 110 * 2;
#X obj 605 380 osc~;
#X obj 631 170 r ratio;
#X obj 623 333 *~;
#X obj 641 269 r index;
#X obj 641 312 line~;
#X msg 641 290 \$1 20;
#X obj 623 245 osc~;
#X obj 605 358 +~;
#X obj 623 223 * 2;
#X obj 630 192 t b f;
#X obj 605 148 mtof;
#X obj 662 104 unpack;
#X obj 700 425 line~;
#X obj 740 382 pack 0 0;
#X obj 607 484 *~;
#X obj 740 361 / 127;
#X obj 785 361 r A;
#X obj 708 339 sel 0;
#X obj 660 382 pack 0 0;
#X obj 713 360 r R;
#X obj 592 245 sig~;
#X obj 662 76 receive \$0-pack;
#X obj 557 255 vsl 15 128 0 1 0 0 empty h3 empty 0 -9 0 10 -262144
-1 -1 0 1;
#X obj 622 435 line~;
#X msg 622 410 \$1 100;
#X obj 606 459 *~;
#X obj 881 360 osc~;
#X obj 907 150 r ratio;
#X obj 899 313 *~;
#X obj 917 249 r index;
#X obj 917 292 line~;
#X msg 917 270 \$1 20;
#X obj 899 225 osc~;
#X obj 881 338 +~;
#X obj 899 203 * 2;
#X obj 906 172 t b f;
#X obj 881 128 mtof;
#X obj 938 84 unpack;
#X obj 976 405 line~;
#X obj 1016 362 pack 0 0;
#X obj 883 464 *~;
#X obj 1016 341 / 127;
#X obj 1061 341 r A;
#X obj 984 319 sel 0;
#X obj 936 362 pack 0 0;
#X obj 989 340 r R;
#X obj 868 225 sig~;
#X obj 941 55 receive \$0-pack;
#X obj 833 235 vsl 15 128 0 1 0 0 empty h4 empty 0 -9 0 10 -262144
-1 -1 0 1;
#X obj 898 415 line~;
#X msg 898 390 \$1 100;
#X obj 882 439 *~;
#X obj 597 180 * 3;
#X obj 873 160 * 4;
#X obj 380 1019 osc~;
#X obj 406 809 r ratio;
#X obj 398 972 *~;
#X obj 416 908 r index;
#X obj 416 951 line~;
#X msg 416 929 \$1 20;
#X obj 398 884 osc~;
#X obj 380 997 +~;
#X obj 398 862 * 2;
#X obj 405 831 t b f;
#X obj 380 787 mtof;
#X obj 437 743 unpack;
#X obj 458 1057 line~;
#X obj 515 1021 pack 0 0;
#X obj 382 1123 *~;
#X obj 515 1000 / 127;
#X obj 560 1000 r A;
#X obj 483 978 sel 0;
#X obj 435 1021 pack 0 0;
#X obj 488 999 r R;
#X obj 367 884 sig~;
#X obj 437 715 receive \$0-pack;
#X obj 332 894 vsl 15 128 0 1 0 0 empty h6 empty 0 -9 0 10 -262144
-1 -1 0 1;
#X obj 397 1074 line~;
#X msg 397 1049 \$1 100;
#X obj 381 1098 *~;
#X obj 675 993 osc~;
#X obj 701 783 r ratio;
#X obj 693 946 *~;
#X obj 711 882 r index;
#X obj 711 925 line~;
#X msg 711 903 \$1 20;
#X obj 693 858 osc~;
#X obj 675 971 +~;
#X obj 693 836 * 2;
#X obj 700 805 t b f;
#X obj 675 761 mtof;
#X obj 732 717 unpack;
#X obj 770 1038 line~;
#X obj 810 995 pack 0 0;
#X obj 677 1097 *~;
#X obj 810 974 / 127;
#X obj 855 974 r A;
#X obj 778 952 sel 0;
#X obj 730 995 pack 0 0;
#X obj 783 973 r R;
#X obj 662 858 sig~;
#X obj 735 688 receive \$0-pack;
#X obj 627 868 vsl 15 128 0 1 0 0 empty h7 empty 0 -9 0 10 -262144
-1 -1 0 1;
#X obj 692 1048 line~;
#X msg 692 1023 \$1 100;
#X obj 676 1072 *~;
#X obj 372 819 * 6;
#X obj 667 793 * 7;
#X obj 91 422 osc~;
#X obj 117 212 r ratio;
#X obj 109 375 *~;
#X obj 127 311 r index;
#X obj 127 354 line~;
#X msg 127 332 \$1 20;
#X obj 109 287 osc~;
#X obj 91 400 +~;
#X obj 109 265 * 2;
#X obj 116 234 t b f;
#X obj 92 694 throw~ sumOut;
#X obj 91 190 mtof;
#X obj 148 146 unpack;
#X obj 186 467 line~;
#X obj 226 424 pack 0 0;
#X obj 94 539 *~;
#X obj 226 403 / 127;
#X obj 271 403 r A;
#X obj 194 381 sel 0;
#X obj 146 424 pack 0 0;
#X obj 199 402 r R;
#X obj 78 287 sig~;
#X obj 43 297 vsl 15 128 0 1 0 0 empty h1 empty 0 -9 0 10 -262144 -1
-1 0 1;
#X obj 108 477 line~;
#X msg 108 452 \$1 100;
#X obj 92 501 *~;
#X obj 83 222 * 1;
#X obj 82 1028 osc~;
#X obj 108 818 r ratio;
#X obj 100 981 *~;
#X obj 118 917 r index;
#X obj 118 960 line~;
#X msg 118 938 \$1 20;
#X obj 100 893 osc~;
#X obj 82 1006 +~;
#X obj 100 871 * 2;
#X obj 107 840 t b f;
#X obj 82 796 mtof;
#X obj 139 752 unpack;
#X obj 177 1073 line~;
#X obj 217 1030 pack 0 0;
#X obj 84 1132 *~;
#X obj 217 1009 / 127;
#X obj 262 1009 r A;
#X obj 185 987 sel 0;
#X obj 137 1030 pack 0 0;
#X obj 190 1008 r R;
#X obj 69 893 sig~;
#X obj 140 729 receive \$0-pack;
#X obj 34 903 vsl 15 128 0 1 0 0 empty h5 empty 0 -9 0 10 -262144 -1
-1 0 1;
#X obj 99 1083 line~;
#X msg 99 1058 \$1 100;
#X obj 83 1107 *~;
#X obj 74 828 * 5;
#X obj 152 116 receive \$0-pack;
#X obj 34 65 send \$0-pack;
#X obj 93 665 *~;
#X msg 177 510 99 4000;
#X msg 191 541 0, f 2;
#X obj 132 601 tabread envelope;
#X obj 238 466 bng 15 250 50 0 empty empty empty 17 7 0 10 -262144
-1 -1;
#X obj 131 570 line 0 20;
#X obj 82 1298 throw~ sumOut;
#X obj 80 1273 *~;
#X msg 184 1107 99 4000;
#X msg 188 1145 0, f 2;
#X obj 111 1199 tabread envelope;
#X obj 231 1075 bng 15 250 50 0 empty empty empty 17 7 0 10 -262144
-1 -1;
#X obj 117 1170 line 0 20;
#X obj 310 638 throw~ sumOut;
#X obj 313 606 *~;
#X msg 381 437 99 4000;
#X msg 403 467 0, f 2;
#X obj 347 518 tabread envelope;
#X obj 383 416 bng 15 250 50 0 empty empty empty 17 7 0 10 -262144
-1 -1;
#X obj 353 494 line 0 20;
#X obj 603 634 throw~ sumOut;
#X obj 606 602 *~;
#X msg 728 452 99 4000;
#X msg 724 484 0, f 2;
#X obj 635 529 tabread envelope;
#X obj 749 423 bng 15 250 50 0 empty empty empty 17 7 0 10 -262144
-1 -1;
#X obj 641 501 line 0 20;
#X obj 377 1272 throw~ sumOut;
#X obj 381 1242 *~;
#X msg 491 1080 99 4000;
#X msg 510 1105 0, f 2;
#X obj 409 1159 tabread envelope;
#X obj 505 1049 bng 15 250 50 0 empty empty empty 17 7 0 10 -262144
-1 -1;
#X obj 425 1131 line 0 20;
#X obj 879 618 throw~ sumOut;
#X obj 878 587 *~;
#X msg 970 439 99 4000;
#X msg 987 469 0, f 2;
#X obj 913 517 tabread envelope;
#X obj 1035 399 bng 15 250 50 0 empty empty empty 17 7 0 10 -262144
-1 -1;
#X obj 916 491 line 0 20;
#X obj 675 1258 throw~ sumOut;
#X obj 677 1229 *~;
#X msg 762 1062 99 4000;
#X msg 783 1093 0, f 2;
#X obj 698 1150 tabread envelope;
#X obj 825 1031 bng 15 250 50 0 empty empty empty 17 7 0 10 -262144
-1 -1;
#X obj 710 1119 line 0 20;
#X obj 133 650 line~;
#X msg 134 625 \$1 50;
#X obj 349 577 line~;
#X msg 349 552 \$1 50;
#X obj 632 583 line~;
#X msg 632 558 \$1 50;
#X obj 909 568 line~;
#X msg 909 543 \$1 50;
#X obj 106 1250 line~;
#X msg 106 1225 \$1 50;
#X obj 399 1213 line~;
#X msg 403 1188 \$1 50;
#X obj 694 1204 line~;
#X msg 694 1179 \$1 50;
#X text 27 222 harmonic;
#X text 584 30 how to put that thing in abstraction?;
#X connect 0 0 192 0;
#X connect 1 0 0 0;
#X connect 2 0 27 0;
#X connect 3 0 11 0;
#X connect 4 0 9 1;
#X connect 5 0 7 0;
#X connect 6 0 4 1;
#X connect 7 0 6 0;
#X connect 8 0 4 0;
#X connect 9 0 2 0;
#X connect 10 0 8 0;
#X connect 11 0 10 0;
#X connect 11 1 10 1;
#X connect 12 0 28 0;
#X connect 13 0 12 0;
#X connect 13 1 19 0;
#X connect 14 0 16 1;
#X connect 15 0 14 0;
#X connect 15 0 211 0;
#X connect 16 0 207 0;
#X connect 17 0 15 0;
#X connect 18 0 15 1;
#X connect 19 0 20 0;
#X connect 19 1 17 0;
#X connect 20 0 14 0;
#X connect 21 0 20 1;
#X connect 22 0 9 0;
#X connect 23 0 13 0;
#X connect 24 0 26 0;
#X connect 25 0 27 1;
#X connect 26 0 25 0;
#X connect 27 0 16 0;
#X connect 28 0 22 0;
#X connect 28 0 10 0;
#X connect 29 0 54 0;
#X connect 30 0 38 0;
#X connect 31 0 36 1;
#X connect 32 0 34 0;
#X connect 33 0 31 1;
#X connect 34 0 33 0;
#X connect 35 0 31 0;
#X connect 36 0 29 0;
#X connect 37 0 35 0;
#X connect 38 0 37 0;
#X connect 38 1 37 1;
#X connect 39 0 81 0;
#X connect 40 0 39 0;
#X connect 40 1 46 0;
#X connect 41 0 43 1;
#X connect 42 0 41 0;
#X connect 42 0 218 0;
#X connect 43 0 214 0;
#X connect 44 0 42 0;
#X connect 45 0 42 1;
#X connect 46 0 47 0;
#X connect 46 1 44 0;
#X connect 47 0 41 0;
#X connect 48 0 47 1;
#X connect 49 0 36 0;
#X connect 50 0 40 0;
#X connect 51 0 53 0;
#X connect 52 0 54 1;
#X connect 53 0 52 0;
#X connect 54 0 43 0;
#X connect 55 0 80 0;
#X connect 56 0 64 0;
#X connect 57 0 62 1;
#X connect 58 0 60 0;
#X connect 59 0 57 1;
#X connect 60 0 59 0;
#X connect 61 0 57 0;
#X connect 62 0 55 0;
#X connect 63 0 61 0;
#X connect 64 0 63 0;
#X connect 64 1 63 1;
#X connect 65 0 82 0;
#X connect 66 0 65 0;
#X connect 66 1 72 0;
#X connect 67 0 69 1;
#X connect 68 0 67 0;
#X connect 68 0 232 0;
#X connect 69 0 228 0;
#X connect 70 0 68 0;
#X connect 71 0 68 1;
#X connect 72 0 73 0;
#X connect 72 1 70 0;
#X connect 73 0 67 0;
#X connect 74 0 73 1;
#X connect 75 0 62 0;
#X connect 76 0 66 0;
#X connect 77 0 79 0;
#X connect 78 0 80 1;
#X connect 79 0 78 0;
#X connect 80 0 69 0;
#X connect 81 0 49 0;
#X connect 81 0 37 0;
#X connect 82 0 75 0;
#X connect 82 0 63 0;
#X connect 83 0 108 0;
#X connect 84 0 92 0;
#X connect 85 0 90 1;
#X connect 86 0 88 0;
#X connect 87 0 85 1;
#X connect 88 0 87 0;
#X connect 89 0 85 0;
#X connect 90 0 83 0;
#X connect 91 0 89 0;
#X connect 92 0 91 0;
#X connect 92 1 91 1;
#X connect 93 0 135 0;
#X connect 94 0 93 0;
#X connect 94 1 100 0;
#X connect 95 0 97 1;
#X connect 96 0 95 0;
#X connect 96 0 225 0;
#X connect 97 0 221 0;
#X connect 98 0 96 0;
#X connect 99 0 96 1;
#X connect 100 0 101 0;
#X connect 100 1 98 0;
#X connect 101 0 95 0;
#X connect 102 0 101 1;
#X connect 103 0 90 0;
#X connect 104 0 94 0;
#X connect 105 0 107 0;
#X connect 106 0 108 1;
#X connect 107 0 106 0;
#X connect 108 0 97 0;
#X connect 109 0 134 0;
#X connect 110 0 118 0;
#X connect 111 0 116 1;
#X connect 112 0 114 0;
#X connect 113 0 111 1;
#X connect 114 0 113 0;
#X connect 115 0 111 0;
#X connect 116 0 109 0;
#X connect 117 0 115 0;
#X connect 118 0 117 0;
#X connect 118 1 117 1;
#X connect 119 0 136 0;
#X connect 120 0 119 0;
#X connect 120 1 126 0;
#X connect 121 0 123 1;
#X connect 122 0 121 0;
#X connect 122 0 239 0;
#X connect 123 0 235 0;
#X connect 124 0 122 0;
#X connect 125 0 122 1;
#X connect 126 0 127 0;
#X connect 126 1 124 0;
#X connect 127 0 121 0;
#X connect 128 0 127 1;
#X connect 129 0 116 0;
#X connect 130 0 120 0;
#X connect 131 0 133 0;
#X connect 132 0 134 1;
#X connect 133 0 132 0;
#X connect 134 0 123 0;
#X connect 135 0 103 0;
#X connect 135 0 91 0;
#X connect 136 0 129 0;
#X connect 136 0 117 0;
#X connect 137 0 162 0;
#X connect 138 0 146 0;
#X connect 139 0 144 1;
#X connect 140 0 142 0;
#X connect 141 0 139 1;
#X connect 142 0 141 0;
#X connect 143 0 139 0;
#X connect 144 0 137 0;
#X connect 145 0 143 0;
#X connect 146 0 145 0;
#X connect 146 1 145 1;
#X connect 148 0 163 0;
#X connect 149 0 148 0;
#X connect 149 1 155 0;
#X connect 150 0 152 1;
#X connect 151 0 150 0;
#X connect 151 0 197 0;
#X connect 152 0 193 0;
#X connect 153 0 151 0;
#X connect 154 0 151 1;
#X connect 155 0 156 0;
#X connect 155 1 153 0;
#X connect 156 0 150 0;
#X connect 157 0 156 1;
#X connect 158 0 144 0;
#X connect 159 0 161 0;
#X connect 160 0 162 1;
#X connect 161 0 160 0;
#X connect 162 0 152 0;
#X connect 163 0 158 0;
#X connect 163 0 145 0;
#X connect 164 0 189 0;
#X connect 165 0 173 0;
#X connect 166 0 171 1;
#X connect 167 0 169 0;
#X connect 168 0 166 1;
#X connect 169 0 168 0;
#X connect 170 0 166 0;
#X connect 171 0 164 0;
#X connect 172 0 170 0;
#X connect 173 0 172 0;
#X connect 173 1 172 1;
#X connect 174 0 190 0;
#X connect 175 0 174 0;
#X connect 175 1 181 0;
#X connect 176 0 178 1;
#X connect 177 0 176 0;
#X connect 177 0 204 0;
#X connect 178 0 200 0;
#X connect 179 0 177 0;
#X connect 180 0 177 1;
#X connect 181 0 182 0;
#X connect 181 1 179 0;
#X connect 182 0 176 0;
#X connect 183 0 182 1;
#X connect 184 0 171 0;
#X connect 185 0 175 0;
#X connect 186 0 188 0;
#X connect 187 0 189 1;
#X connect 188 0 187 0;
#X connect 189 0 178 0;
#X connect 190 0 184 0;
#X connect 190 0 172 0;
#X connect 191 0 149 0;
#X connect 193 0 147 0;
#X connect 194 0 195 0;
#X connect 194 0 198 0;
#X connect 195 0 198 0;
#X connect 196 0 242 0;
#X connect 197 0 194 0;
#X connect 198 0 196 0;
#X connect 200 0 199 0;
#X connect 201 0 202 0;
#X connect 201 0 205 0;
#X connect 202 0 205 0;
#X connect 203 0 250 0;
#X connect 204 0 201 0;
#X connect 205 0 203 0;
#X connect 207 0 206 0;
#X connect 208 0 209 0;
#X connect 208 0 212 0;
#X connect 209 0 212 0;
#X connect 210 0 244 0;
#X connect 211 0 208 0;
#X connect 212 0 210 0;
#X connect 214 0 213 0;
#X connect 215 0 216 0;
#X connect 215 0 219 0;
#X connect 216 0 219 0;
#X connect 217 0 246 0;
#X connect 218 0 215 0;
#X connect 219 0 217 0;
#X connect 221 0 220 0;
#X connect 222 0 223 0;
#X connect 222 0 226 0;
#X connect 223 0 226 0;
#X connect 224 0 252 0;
#X connect 225 0 222 0;
#X connect 226 0 224 0;
#X connect 228 0 227 0;
#X connect 229 0 230 0;
#X connect 229 0 233 0;
#X connect 230 0 233 0;
#X connect 231 0 248 0;
#X connect 232 0 229 0;
#X connect 233 0 231 0;
#X connect 235 0 234 0;
#X connect 236 0 237 0;
#X connect 236 0 240 0;
#X connect 237 0 240 0;
#X connect 238 0 254 0;
#X connect 239 0 236 0;
#X connect 240 0 238 0;
#X connect 241 0 193 1;
#X connect 242 0 241 0;
#X connect 243 0 207 1;
#X connect 244 0 243 0;
#X connect 245 0 214 1;
#X connect 246 0 245 0;
#X connect 247 0 228 1;
#X connect 248 0 247 0;
#X connect 249 0 200 1;
#X connect 250 0 249 0;
#X connect 251 0 221 1;
#X connect 252 0 251 0;
#X connect 253 0 235 1;
#X connect 254 0 253 0;
#X coords 0 0 1 1 85 60 0;
